<?xml version="1.0" encoding="UTF-8"?>
<svg id="Layer_1" xmlns="http://www.w3.org/2000/svg" version="1.1" viewBox="0 0 960 540">
  <!-- Generator: Adobe Illustrator 29.0.0, SVG Export Plug-In . SVG Version: 2.1.0 Build 186)  -->
  <path d="M507.58,228.44l.03-.51s-12.04-9.1-27.38-7.82c-7.02.72-15.24,2.23-21.84,6-6.52,3.81-12.68,8.39-17.85,14.52-2.64,3.12-4.91,6.81-6.68,10.68-.44.96-1.77,1.97-2.72,1.8l-8.94-1.51c-.75-.16-1.87-1.09-2.34-2.33h0l-.58-1.22c-.26,1.47-.75,2.88-1.41,4.21l2.1.36h0s12.45,2.16,12.45,2.16h0l5.53.96c2.99.52,6.27-1.62,7.21-4.72.73-2.39,1.65-5.01,2.6-6.77,3.33-5.93,6.57-11.58,12.61-15.59,5.7-3.69,14.41-6.38,19.24-6.48,8.72-.18,22.68-2.53,26.3,24.45l2.19-3.63-.51-14.54Z"/>
  <path d="M579.86,280.31c3.51-5.46,6.07-11.85,7.15-17.81,1.31-7.66.46-16.04-2.53-22.24-2.99-6.23-8.16-10.75-13.34-14.62-3.1-2.26-6.82-3.77-10.74-4.77-5.31-1.37-11.13-1.38-16.93-.07-4.45,1-8.9,2.53-12.9,4.84-6.54,3.87-13.3,8.39-18.49,14.62-5.18,6.19-8.98,14.58-10.37,22.24,0,.01,0-.01,0,0-.41,2.4,1.66,4.56,3.95,4.96l5.44.94,68.75,11.91ZM518.29,243.93c3.49-5.98,7.61-11.77,13.66-15.85.24-.16.48-.31.72-.46,12.01-7.5,26.32-7.5,35.68,0,.19.15.38.31.56.46,4.61,4.08,6.85,9.81,8.07,15.85,1.13,6.11.99,12.34-.11,18.57-.31,1.78-.7,3.51-1.17,5.22-1.4,5.12-6.74,8.21-11.68,7.41,0,0-32.2-5.21-46.21-8.23-3.95-.85-6.12-4.6-5.09-8.78s2.71-9.32,5.56-14.2Z"/>
  <path d="M670.47,300s0,0,0,0l-38.23-6.61-16.5-2.9,2.34,1.06c.54.24,1.05.53,1.55.83.58.35,1.53.83,2.33,1.31.88.52,1.37,1.1,1.4,2.18v.14c-.03.83-.13,1.68-.38,2.52-1.22,4.1-4.39,5.71-12.09,5.71l1.27,1.5h66.74l.32-1.82c.23-1.33-.53-2.46-1.8-2.68l-6.97-1.21ZM637.23,304.21c-3.8,0-6.35-3.08-5.67-6.89l.06-.34c.18-1.03,1.25-1.82,2.24-1.65l27.97,5c1.74.31,1.41,2.84-.43,3.31-.03,0-.05.01-.08.02-1.66.43-4.65.54-8.74.54h-15.36Z"/>
  <path d="M682.05,287.98c-2.85,3.31-6.12,7.85-12.85,8l11.14,1.73,1.72-9.74Z"/>
  <path d="M654.32,221.5h-28.82l1.27,1.5c5.18,0,8.65,4.2,7.73,9.39l-8.39,47.6c-.59,3.35-4.05,5.9-7.26,5.35l-11.63-2.01c-2.48-.43-3.97-2.65-3.51-5.24l8.06-45.69c.91-5.18,5.86-9.39,11.04-9.39h.87l-1.29-1.5h-28.14l1.28,1.5c5.19,0,8.65,4.2,7.73,9.39l-8.89,50.43,8.25,1.43h0s22.06,3.81,22.06,3.81h0s8.25,1.44,8.25,1.44l10.07-57.11c.91-5.18,5.86-9.39,11.04-9.39h1.55l-1.28-1.5Z"/>
  <path d="M604.85,324.85h0c-5.18,0-8.65-4.2-7.73-9.39l4.45-25.25c.21-1.21-.48-2.24-1.63-2.44l-6.13-1.06-15.58-2.7-17.36-3.06c-.11.21,9.07,2.61,6.17,7.55-4.55,7.72-9.56,10.06-11.36,11.09-12.24,7.03-26.32,7.51-35.68,0-.19-.15-.38-.31-.56-.46-4.61-4.08-6.85-9.81-8.07-15.84-.41-2.25-.64-4.52-.72-6.79-.09-2.59-1.83-4.57-4.36-5.01l-12.21-2.12s-.02,0-.03,0l-58.12-10.02-11.45-2.06c3.98,1.01,4.53,3.02,4.95,4.12.33.87.61,2.34.43,3.31-1.29,7.54-.42,15.79,2.59,21.89,3.01,6.13,7.16,10.82,12.34,14.63,5.27,3.77,10.16,5.9,20.12,5.9,15.17,0,28.85-8.05,28.85-8.05l6.4-17.43-.49-3.21c-13.13,26.98-27.65,26.82-35.42,26.69-5-.08-11.8-2.84-16.2-6.53-4.62-4.01-6.88-9.66-8.11-15.59-.74-3.91-.95-7.86-.71-11.84.03-.42.08-.99.16-1.64.43-3.63,4.16-6.53,7.65-5.92l50.49,8.71c2.61.43,3.7,2.17,3.88,5.09.22,3.59.57,5.63,2.47,9.54,2.99,6.24,8.16,10.76,13.34,14.62,2.68,1.95,5.88,3.35,9.28,4.34,6.47,1.89,13.72,1.89,20.85-.07,3.6-.99,7.15-2.36,10.44-4.27,5.22-3.08,10.58-6.59,15.17-11.05.22-.21.5-.51.83-.86,2.2-2.37,5.35-3.56,8.19-3.07l4.62.8c3.91.68,6.25,4.16,5.53,8.25l-3.49,19.82c-.46,2.59-1.92,4.93-3.92,6.64-2,1.7-6.07,2.75-8.67,2.75l1.28,1.51h28.84l-1.28-1.51Z"/>
  <path d="M381.84,324.96c-1.08,0-4.03-.25-6.89-3.73l-47.76-55.82s0-.03.02-.03l3.91.03c8.61-.04,17.67-4.25,23.33-11.64.38-.5.75-1.02,1.09-1.54.95-1.44.1-3.1-1.52-2.94l-5.3.52c-.85,1.85-1.93,3.6-3.21,5.18-4.67,5.86-12,9-18.91,9h-15.66,0s1.45-8.21,1.45-8.21l-8.8,1.49-6.63,37.59c-.92,5.2-5.87,9.41-11.06,9.41l1.28,1.49h.01s27.4,0,27.4,0l-1.33-1.5h-.04c-5.63-1.38-8.18-4.83-7.75-9.41l5.19-29.46.02-.02c3.39,0,6.44,1.27,8.56,3.54l44.31,52.54c.75,1.28.61,2.11-.02,2.63-.87.73-2.68.87-4.32.87l1.25,1.49s0,0,.01,0h22.63l-1.27-1.49h-.01Z"/>
  <path d="M300.27,244.21c.6-3.41,4.13-6.01,7.4-5.44l26.95,4.67c1.05.18,1.6,1.22,1.25,2.31-.18.55-.4,1.1-.62,1.64l9.02-1.71c.06-.17.15-.35.21-.52.31-.9-.16-1.75-1.03-1.9l-6.55-1.13-35.48-6.14h0s-7.87-1.38-7.87-1.38c0,0-6.64-1.36-8.93-1.83-.06-.01-.1.08-.04.1,7.96,2.98,7.89,7.17,7.57,9l-2.23,12.63,8.75-1.23,1.6-9.05Z"/>
  <path d="M405.6,304.27h-22.79c-1.43,0-2.39-1.16-2.14-2.6l5.18-29.37c.67-3.81,4.3-6.9,8.11-6.9h8.6c7.57,0,12.8,4.58,11.47,12.15l1.31,1.55,3.76-21.32c.13-.75-.3-1.48-1.02-1.61l-8.35-1.45c3.65,1.09,4.96,3.06,4.57,4.76-.73,3.19-6.37,4.46-11.48,4.46h-8.59c-3.81,0-6.35-3.09-5.68-6.9l.4-2.24c.35-2-.79-3.71-2.71-4.04l-13.38-2.31c6.64,2.67,7.21,8.36,6.57,12l-5.33,30.22c-.96,5.45-2.62,10.55-6.18,12.28-5.99,2.92-14.13-.5-22.16-8.84l9.98,11.66h71.26l4.76-16.53-1.07-2.63c-3.07,11.37-13.66,17.66-25.08,17.66Z"/>
  <path d="M297.55,222.09c1.31,1.71,1.03,3.81.52,6.33l8.2,1.67.15-.72h0l.49-2.42.8-3.93c.4-1.98,2.33-3.54,4.3-3.49l8.76.24-2.86-1.59-27-.75,1.33,1.57c3.73.76,4.66,2.25,5.3,3.09Z"/>
  <path d="M327.19,222.76c8.72,0,15.7,5.58,16.67,13.68.22,1.84,1.45,3.26,3.3,3.58l5.01.87h0s.17.03.17.03h0s9.37,1.62,9.37,1.62l-1.68-.52c-1.39-.43-2.74-.94-4.05-1.51l-1.26-.55c-1.07-.43-2.18-1.5-2.24-2.62-.49-9.1-7.73-15.7-17.25-16.07h-12.64l2.2,1.5h2.4Z"/>
  <path d="M381.97,246.02l8.27,1.43,3.87-21.92c.25-1.43,1.61-2.59,3.04-2.59h23.24c11.09,0,18.5,8.99,16.55,20.09l1.95-2.75,1.48-18.83h-65.07l1.33,1.5c5.2,0,8.66,4.22,7.75,9.41l-1.53,8.66c-.3,1.71-2.07,3.02-3.71,2.73l-4.42-.77c-.91-.26-2.17-.67-3.87-1.3-6.28-2.32-10.9-6.58-10.9-6.58.03.03,7.62,8.41,7.62,8.41l14.4,2.49Z"/>
  <polygon points="358.29 249.21 371.39 248.32 354.74 245.44 358.29 249.21"/>
  <polygon points="289.52 228.52 297.48 230.48 285.08 222.71 289.52 228.52"/>
  <polygon points="326.67 217.95 323.14 214.37 317.71 213.08 323.12 217.34 326.67 217.95"/>
  <polygon points="343.38 238.71 339.73 234.43 334.63 234.18 343.38 238.71"/>
  <polygon points="280.47 258.76 278.72 263.06 287.52 259.09 292.11 256.63 280.47 258.76"/>
  <path d="M337.75,250.15h0l-8.99.51c-.39.75-1.5,2.58-1.96,3.3l10.95-3.81Z"/>
  <polygon points="340.73 249.85 340.73 249.85 337.59 253.71 334.65 253.04 340.73 249.85"/>
</svg>