<?xml version="1.0" encoding="UTF-8"?>
<svg id="Layer_1" xmlns="http://www.w3.org/2000/svg" version="1.1" viewBox="0 0 960 540">
  <!-- Generator: Adobe Illustrator 29.0.0, SVG Export Plug-In . SVG Version: 2.1.0 Build 186)  -->
  <defs>
    <style>
      .st0 {
        fill: #231f20;
      }
    </style>
  </defs>
  <path class="st0" d="M323.32,264.43l50.75,59.51c.68.74,1.66,1.14,2.75,1.14l-.27,1.53h-20.95l.27-1.53c2.79,0,4.73-3.44,2.99-5.31l-43.59-51.73c-2.16-2.31-5.27-3.6-8.73-3.6l-5.33,30.01c-.94,5.29,2.58,9.57,7.87,9.57h.04l-.27,1.53h-27.85l.27-1.53c5.29,0,10.33-4.28,11.27-9.57l10.91-61.38c.47-2.64-.18-5.03-1.6-6.76-1.41-1.73-3.62-2.8-6.26-2.8l.27-1.53h42.69c10.7.41,18.59,8.55,17.49,19.32-.41,3.94-2.26,7.84-4.92,11.33-5.77,7.52-15,11.8-23.76,11.85l-4.03-.03ZM306.81,263.02h15.94c7.03,0,14.5-3.2,19.26-9.16,2.57-3.17,4.4-6.94,5.12-10.97.13-.74.22-1.47.26-2.17.75-10-7.01-17.22-17.03-17.22h-16.52l-7.02,39.52h0Z"/>
  <path class="st0" d="M406.95,304.02c11.63,0,21.8-7.15,24.94-18.73l2,3-5.17,17.25h-71.67l-1.67-3.6c1.43,1.87,2.63,1.96,4.38,1.77,3.89-.43,8.97-1.31,10.37-2.5,2.03-1.73,3.53-4.12,4.01-6.77l10.9-61.36c.94-5.28-2.58-9.57-7.87-9.57l.27-1.53h64.6l-1.16,17.31-4,4h0c.98-11.57-5.53-19.8-17.16-19.8h-24.31l-5.77,32.45c-.69,3.87,1.89,7.02,5.77,7.02h8.74c7.7,0,15.05-6.24,16.42-13.94h1.53l-5.22,29.38h-1.53c1.37-7.7-3.76-13.94-11.47-13.94h-8.75c-3.88,0-7.58,3.15-8.27,7.02l-5.78,32.54h25.84Z"/>
  <path class="st0" d="M501.59,283.04l-6.01,14.76s-14.25,9.52-29.42,8.21c-6.9-.74-14.08-2.41-19.44-6.25-5.28-3.88-10.56-8.42-13.61-14.67-3.06-6.21-3.94-14.63-2.61-22.31,1.41-7.68,5.27-16.1,10.54-22.31,5.28-6.25,12.17-10.79,18.83-14.67,6.73-3.84,14.5-5.52,21.66-6.25,15.63-1.31,23.4,6.29,23.4,6.29l-.03.52,3.38,17.11-1.78,3.38c-.75-25.43-16.88-26.46-25.5-26.12-.51.08-.76.12-.76.12-6.6,1.06-13.15,3.64-18.96,7.39-6.16,4.09-10.49,9.85-13.9,15.89-3.34,6.13-5.43,12.38-6.54,18.63s-1.24,12.5-.08,18.63c1.25,6.05,3.54,11.81,8.25,15.89,4.48,3.76,10.11,6.33,16.34,7.4,0,0,.24.05.71.12,6.1.98,29.83-2.09,34.32-25.16l1.22,3.37Z"/>
  <path class="st0" d="M588.43,263.76c-1.42,7.81-5.32,16.36-10.6,22.66-5.3,6.36-12.2,10.97-18.87,14.9-2.11,1.22-4.31,2.23-6.57,3.06-9.96,3.65-20.33,3.63-29.04.08-2.07-.84-4.01-1.87-5.73-3.13-5.27-3.94-10.53-8.55-13.57-14.9-3.04-6.3-3.9-14.86-2.55-22.66,1.42-7.81,5.32-16.35,10.6-22.66,5.3-6.35,12.2-10.96,18.87-14.9,2.17-1.26,4.48-2.29,6.85-3.13,9.98-3.55,20.36-3.57,29.02.08,1.96.83,3.82,1.83,5.49,3.05,5.27,3.95,10.53,8.55,13.57,14.9,3.04,6.31,3.9,14.86,2.55,22.66ZM578.09,263.76c1.13-6.35,1.28-12.7.14-18.93-1.24-6.15-3.51-12-8.2-16.15-.19-.16-.38-.32-.57-.47-9.53-7.65-24.12-7.65-36.37,0-.25.16-.49.31-.74.47-6.17,4.15-10.52,10-13.94,16.15-3.35,6.23-5.46,12.58-6.59,18.93s-1.28,12.71-.14,18.94c1.24,6.14,3.51,11.99,8.2,16.14.19.16.38.32.57.47,9.53,7.65,24.12,7.65,36.37,0,.25-.16.5-.31.74-.47,6.17-4.15,10.52-10,13.94-16.14,3.35-6.23,5.46-12.59,6.59-18.94Z"/>
  <path class="st0" d="M605.82,325.06h0l-.27,1.53h-27.81l.27-1.53c2.64,0,5.23-1.07,7.26-2.8,2.04-1.74,3.54-4.13,4.01-6.77l14.65-82.42c.94-5.29-2.58-9.57-7.87-9.57l.27-1.53h27.81l-.27,1.53h0c-5.29,0-10.33,4.28-11.27,9.57l-14.65,82.42c-.94,5.28,2.58,9.57,7.87,9.57Z"/>
  <path class="st0" d="M680.19,305.55h-68.03l.27-1.53c5.28,0,10.33-4.28,11.27-9.57l10.91-61.38c.94-5.28-2.58-9.57-7.87-9.57l.27-1.53h27.81l-.27,1.53h0c-5.28,0-10.33,4.28-11.27,9.57l-11.36,63.93c-.69,3.88,1.9,7.02,5.77,7.02h15.66c10.85,0,21.94-5.35,29.65-14.29l-2.81,15.82Z"/>
</svg>