<?xml version="1.0" encoding="UTF-8" standalone="no"?>
<!-- Created with Inkscape (http://www.inkscape.org/) -->

<svg
   width="1280"
   height="720"
   viewBox="0 0 338.66666 190.5"
   version="1.1"
   id="svg1"
   inkscape:export-filename="path 1.png"
   inkscape:export-xdpi="96"
   inkscape:export-ydpi="96"
   inkscape:version="1.4.3 (0d15f75, 2025-12-25)"
   sodipodi:docname="curtains.svg"
   xmlns:inkscape="http://www.inkscape.org/namespaces/inkscape"
   xmlns:sodipodi="http://sodipodi.sourceforge.net/DTD/sodipodi-0.dtd"
   xmlns="http://www.w3.org/2000/svg"
   xmlns:svg="http://www.w3.org/2000/svg">
  <sodipodi:namedview
     id="namedview1"
     pagecolor="#ffffff"
     bordercolor="#000000"
     borderopacity="0.25"
     inkscape:showpageshadow="2"
     inkscape:pageopacity="0.0"
     inkscape:pagecheckerboard="0"
     inkscape:deskcolor="#d1d1d1"
     inkscape:document-units="mm"
     showguides="true"
     inkscape:zoom="0.66"
     inkscape:cx="681.06061"
     inkscape:cy="346.21212"
     inkscape:window-width="1440"
     inkscape:window-height="900"
     inkscape:window-x="0"
     inkscape:window-y="0"
     inkscape:window-maximized="0"
     inkscape:current-layer="layer1" />
  <defs
     id="defs1" />
  <g
     inkscape:label="Layer 1"
     inkscape:groupmode="layer"
     id="layer1">
    <path
       style="fill:none;stroke:#000000;stroke-width:1.05833;stroke-dasharray:none"
       id="path2"
       d="m 2.787081,54.017736 c 5.96872,-1.215323 11.94023,-2.420889 17.89936,-3.684177 18.46209,-4.424098 36.76376,-9.478245 55.16373,-14.147715 3.00475,-0.742873 6.00949,-1.485747 9.01424,-2.22862 0,0 -0.0658,-0.04544 -0.0658,-0.04544 v 0 c -3.00487,0.742804 -6.00974,1.485609 -9.01461,2.22841 -18.56837,4.656717 -37.03385,9.760204 -55.76764,13.727253 -6.05461,1.243872 -12.12914,2.40847 -18.21913,3.455776 z" />
    <path
       id="path4"
       style="fill:none;stroke:#000000;stroke-width:1.05833;stroke-dasharray:none"
       d="m 74.259821,123.27378 c -1.63101,0.39317 -3.26171,0.78661 -4.89273,1.17978 -7.24874,2.01633 -14.46433,4.14978 -21.67258,6.30659 0.0433,0.15513 0.0939,0.30839 0.14625,0.46095 7.33042,-2.17783 14.67703,-4.30009 22.02294,-6.427 l 4.46226,-1.47484 z" />
    <path
       style="fill:#000000;fill-opacity:1;stroke:none;stroke-width:1.05833;stroke-dasharray:none;stroke-opacity:1"
       id="path13"
       d="m 86.642881,40.337905 c 1.16595,4.509786 3.47185,8.570809 5.72478,12.604083 3.7888,6.209612 7.785619,12.344538 12.390799,17.989764 2.15778,2.645109 4.41706,5.208686 6.7378,7.712043 6.13013,6.612525 9.48597,9.564741 16.04722,15.746947 0,0 0.074,0.0304 0.074,0.0304 v 0 c -2.73259,-2.575037 -5.54593,-5.066991 -8.1978,-7.725103 -9.81588,-9.839066 -18.42614,-20.879374 -25.296149,-32.96734 -0.72425,-1.356042 -1.48211,-2.69466 -2.17274,-4.06813 -1.39313,-2.770569 -2.45237,-5.673151 -3.61651,-8.540411 z" />
    <path
       style="fill:#000000;fill-opacity:1;stroke:none;stroke-width:1.05833;stroke-dasharray:none;stroke-opacity:1"
       id="path14"
       d="m 144.55552,117.94517 c -0.56001,-0.67871 -0.65746,-0.80937 -1.35321,-1.572 -0.59346,-0.65051 -1.19824,-1.29061 -1.79737,-1.93592 -0.90532,-0.97947 -1.81834,-1.95188 -2.71597,-2.93841 -3.12618,-3.43585 -4.36121,-4.87252 -7.52742,-8.47123 0,0 -0.28361,-0.12092 -0.28361,-0.12092 v 0 c 1.03238,1.39773 2.02152,2.82842 3.09711,4.19318 2.76648,3.51032 5.85454,6.7641 8.82449,10.09922 z" />
    <path
       id="path15"
       style="fill:#000000;fill-opacity:1;stroke:none;stroke-width:1.05833;stroke-dasharray:none;stroke-opacity:1"
       d="m 137.37379,119.88536 c -1.20293,0.6513 -2.4287,1.26168 -3.60856,1.95388 -3.81137,2.23604 -7.33426,4.93534 -11.23808,7.02025 -2.68306,1.33179 -3.69722,2.03404 -6.51795,2.7435 -3.79505,0.95453 -6.60822,0.42278 -10.09447,-1.17977 -1.34059,-0.52327 -0.37943,-0.11465 -2.77296,-1.53221 -2.4679,-1.46163 -5.434869,-3.55339 -8.318349,-4.2509 -0.76909,-0.18605 -1.56646,-0.22464 -2.34973,-0.33693 -0.82039,0.0395 -1.64902,-0.003 -2.46135,0.11834 -1.88292,0.28117 -3.8641,1.0068 -5.74642,1.92391 -0.006,0.0504 -0.0118,0.10051 -0.0176,0.15089 0.17612,0.23737 0.35257,0.70266 0.43098,0.89607 2.12995,-1.03312 4.41326,-1.81436 6.64559,-2.06189 0.83927,-0.0931 1.68831,-0.0186 2.53267,-0.0279 3.88881,0.26683 6.481299,2.38704 9.682089,4.20336 1.30241,0.73906 2.622,1.44686 3.93309,2.17041 3.59648,1.60975 6.26945,2.11823 10.15856,1.0635 2.88308,-0.7819 3.68518,-1.43196 6.40271,-2.89181 3.70962,-2.27773 7.3574,-4.67078 10.82104,-7.3117 1.00383,-0.76538 1.96725,-1.58265 2.95073,-2.37402 z m -56.206389,9.13846 c -0.0868,0.0103 -0.1698,0.0202 -0.24856,0.0295 0.0151,0.0807 0.0303,0.16114 0.0455,0.24185 -0.0398,0.0985 -0.0738,0.19996 -0.10904,0.30076 0.23336,-0.15614 0.47112,-0.31082 0.71313,-0.46406 -0.13411,-0.0336 -0.26789,-0.0695 -0.40101,-0.108 z m -10.43243,9.65419 c -0.0785,0.10685 -0.15778,0.21281 -0.23823,0.31833 l 0.10748,0.0574 c 0.005,-0.0117 0.0103,-0.0234 0.0155,-0.0351 0.0357,-0.10758 0.0745,-0.22064 0.11524,-0.34055 z" />
    <path
       style="fill:#000000;fill-opacity:1;stroke:none;stroke-width:1.05833;stroke-dasharray:none;stroke-opacity:1"
       id="path16"
       d="m 80.118981,122.06449 c -2.59591,-2.319 -5.00168,-4.72463 -7.16043,-7.4736 -1.04254,-1.32758 -2.01326,-2.71001 -3.01989,-4.06502 -4.33006,-6.35149 -8.61741,-12.734848 -12.70472,-19.245411 0,0 -0.0731,-0.03239 -0.0731,-0.03239 v 0 c 3.67295,6.299253 7.17867,12.707801 11.38741,18.676331 1.88939,2.64444 3.20916,4.63431 5.28428,7.05755 1.33546,1.5595 2.88861,2.94014 4.41491,4.30729 z" />
    <path
       style="fill:#000000;fill-opacity:1;stroke:none;stroke-width:1.05833;stroke-dasharray:none;stroke-opacity:1"
       id="path23"
       d="m 43.193261,52.513122 c -0.0231,0.343083 -0.0805,0.68556 -0.0695,1.029248 0.0488,1.524794 0.36172,3.248829 0.66628,4.702897 0.69685,3.327025 1.3384,5.68189 2.48278,8.988513 0.67255,1.943285 1.45822,3.845557 2.18733,5.768337 0.91407,1.998041 1.82814,3.996081 2.74221,5.994122 0,0 0.0726,0.03352 0.0726,0.03352 v 0 c -0.67875,-1.887794 -1.35749,-3.775588 -2.03624,-5.663382 -2.06752,-6.472264 -4.38372,-13.111189 -4.42944,-19.984789 z" />
    <path
       style="fill:#000000;fill-opacity:1;stroke:none;stroke-width:1.05833;stroke-dasharray:none;stroke-opacity:1"
       id="path24"
       d="m 41.845491,63.659378 c -0.013,0.190915 -0.0396,0.381394 -0.0389,0.572751 0.007,1.828819 0.2526,3.711247 0.41955,5.524185 0.32032,3.478223 0.66901,6.783771 1.02589,10.275573 1.04772,9.354444 0.56292,4.651555 1.45211,14.108903 0,0 0.0716,0.03565 0.0716,0.03565 v 0 c -0.8814,-9.373952 -0.54673,-4.742764 -1.01996,-13.8924 -0.21408,-5.328719 -0.45408,-10.657213 -0.70977,-15.982831 z" />
    <path
       style="fill:#000000;fill-opacity:1;stroke:none;stroke-width:1.05833;stroke-dasharray:none;stroke-opacity:1"
       id="path25"
       d="m 50.676721,139.48639 c -0.86641,-4.87941 -1.40387,-9.81677 -2.15089,-14.7178 -0.33465,-1.60003 -0.6693,-3.20006 -1.00395,-4.8001 0,0 -0.28202,-0.13874 -0.28202,-0.13874 v 0 c 0.1008,1.48474 0.2016,2.96949 0.30239,4.45424 0.50048,4.24471 0.43564,3.57174 0.85672,7.58383 0.21738,2.07114 0.35327,4.18127 0.76034,6.22892 0.051,0.25658 0.12874,0.50712 0.19311,0.76067 z" />
    <path
       style="fill:#000000;fill-opacity:1;stroke:none;stroke-width:1.05833;stroke-dasharray:none;stroke-opacity:1"
       id="path33"
       d="m 49.865981,139.82587 c -1.63457,-0.88748 -3.18152,-2.01 -4.96582,-2.59734 -0.96383,-0.31726 -1.17272,-0.30489 -2.1761,-0.45541 -3.01717,-0.18558 -5.34057,1.14831 -7.85779,2.60213 -3.18213,2.01526 -6.68181,3.40734 -10.28075,4.46751 -1.99336,0.5334 -4.03739,0.80741 -6.08564,1.01668 -0.61637,0.063 -1.24102,0.0598 -1.85117,0.16745 -0.90173,0.15914 -1.42167,0.44446 -2.21697,0.80493 0,0 0.20297,0.1462 0.20297,0.1462 v 0 c 1.24738,0.19495 2.77227,0.47594 4.03313,0.49036 0.63386,0.007 1.26521,-0.0839 1.89619,-0.14471 2.07543,-0.20005 4.15353,-0.47455 6.17214,-1.01084 3.62242,-1.0728 7.16225,-2.46318 10.37398,-4.47969 2.48164,-1.41803 4.80016,-2.69033 7.76128,-2.44841 1.01569,0.16535 1.9548,0.36077 2.90203,0.7764 0.26733,0.1173 1.02727,0.54965 0.78761,0.38296 -0.47726,-0.33195 -1.00382,-0.58672 -1.50476,-0.88176 -0.13729,-0.0809 0.27589,0.15949 0.41383,0.23923 z" />
  </g>
</svg>
