<?xml version="1.0" encoding="UTF-8" standalone="no"?>
<!-- Created with Inkscape (http://www.inkscape.org/) -->

<svg
   width="1280"
   height="720"
   viewBox="0 0 338.66666 190.5"
   version="1.1"
   id="svg1"
   inkscape:export-filename="path 3.png"
   inkscape:export-xdpi="96"
   inkscape:export-ydpi="96"
   inkscape:version="1.4.3 (0d15f75, 2025-12-25)"
   sodipodi:docname="path 3.svg"
   xmlns:inkscape="http://www.inkscape.org/namespaces/inkscape"
   xmlns:sodipodi="http://sodipodi.sourceforge.net/DTD/sodipodi-0.dtd"
   xmlns="http://www.w3.org/2000/svg"
   xmlns:svg="http://www.w3.org/2000/svg">
  <sodipodi:namedview
     id="namedview1"
     pagecolor="#ffffff"
     bordercolor="#000000"
     borderopacity="0.25"
     inkscape:showpageshadow="2"
     inkscape:pageopacity="0.0"
     inkscape:pagecheckerboard="0"
     inkscape:deskcolor="#d1d1d1"
     inkscape:document-units="mm"
     inkscape:zoom="0.72"
     inkscape:cx="650.69444"
     inkscape:cy="346.52778"
     inkscape:window-width="1440"
     inkscape:window-height="872"
     inkscape:window-x="0"
     inkscape:window-y="28"
     inkscape:window-maximized="0"
     inkscape:current-layer="layer1" />
  <defs
     id="defs1" />
  <g
     inkscape:label="Layer 1"
     inkscape:groupmode="layer"
     id="layer1">
    <path
       style="fill:none;stroke:#000000;stroke-width:1.05833;stroke-dasharray:2.11667, 1.05833"
       d="M 4.4097223,4.4097223 C 3.2403301,10.18705 2.2631851,17.809984 7.349537,22.048611 c 4.809843,4.008202 8.933653,5.144676 15.066551,5.144676 2.064339,0 3.203651,0.235559 5.144676,-0.734954 2.179527,-1.089763 3.533521,-2.087895 4.777198,-4.042245 1.774404,-2.788349 4.237421,-9.80477 0.367477,-12.126736 -2.025996,-1.2155977 -4.023439,-0.8116297 -5.512152,1.10243 -0.404982,0.52069 -0.461991,1.236869 -0.734954,1.837385 -1.536398,3.380075 -2.15529,6.474483 -1.837384,10.289351 0.1512,1.814403 0.597095,3.008527 1.10243,4.777198 1.805672,6.319856 5.42445,13.468305 12.861689,13.964121 5.789152,0.385945 10.707264,-2.626244 16.168981,-4.042246 4.370948,-1.133208 8.74331,-1.469906 13.229167,-1.469906 2.449845,0 4.910388,-0.228671 7.349537,0 1.508533,0.141425 2.947964,0.703768 4.409723,1.102431 3.972227,1.083334 6.861291,2.681563 9.554398,5.879629 2.170845,2.577878 3.78251,4.567164 4.7772,7.717012 1.09347,3.462661 1.482873,7.839163 0.734952,11.391784 -0.773512,3.674181 -4.581867,8.642426 -6.614584,11.759258 -2.791878,4.280884 -5.428845,8.652832 -7.717012,13.229166 -5.721387,11.442774 -6.645616,24.597935 -0.367477,36.012735 2.801239,5.09316 6.672173,9.86928 11.759258,12.86169 12.193359,7.17256 17.958499,-3.40813 26.090859,-10.28935 10.04095,-8.4962 19.46899,-15.52876 33.07291,-16.53646 1.14282,-0.0847 7.92301,-0.0538 9.18693,0.36748 11.1116,3.70386 14.93393,16.28929 19.47627,25.72337 5.70503,11.84892 15.08644,26.61509 30.1331,24.98843 4.8937,-0.52905 9.5465,-1.04214 13.59664,-4.04225 6.60314,-4.89121 10.90228,-13.11684 15.06655,-19.84374 1.2165,-1.96512 2.59047,-3.8386 3.67477,-5.87964 5.8728,-11.05467 9.4433,-26.0237 1.10243,-36.747681 -3.81163,-4.900663 -8.47977,-9.214731 -12.86169,-13.596641 -1.70244,-1.702441 -6.61055,-6.522432 -7.71701,-8.084492 -2.42482,-3.423272 -3.47464,-8.761354 -2.93981,-12.86169 0.49571,-3.800469 1.84134,-5.591463 4.04224,-8.819443 9.21173,-13.510546 26.18428,-16.125862 40.42245,-9.5544 3.37899,1.559538 6.84673,4.06619 9.5544,6.614583 4.34162,4.08623 7.92874,9.464241 14.69908,8.819446 4.36208,-0.415438 6.80543,-2.774789 10.28936,-5.512155 7.81867,-6.143241 14.72853,-15.692955 17.27139,-25.355901 1.67584,-6.368126 0.86804,-13.516695 5.51217,-18.741319 1.31561,-1.4800672 8.56996,-0.7349538 10.65683,-0.7349538 0.73493,0 1.47291,0.06654 2.20485,0 1.10332,-0.1003016 2.22171,-0.7349537 3.3073,-0.7349537"
       id="path1" />
  </g>
</svg>
