<?xml version="1.0" encoding="UTF-8" standalone="no"?>
<!-- Created with Inkscape (http://www.inkscape.org/) -->

<svg
   width="1280"
   height="720"
   viewBox="0 0 338.66666 190.5"
   version="1.1"
   id="svg1"
   inkscape:export-filename="path 1.png"
   inkscape:export-xdpi="96"
   inkscape:export-ydpi="96"
   inkscape:version="1.4.3 (0d15f75, 2025-12-25)"
   sodipodi:docname="path 1.svg"
   xmlns:inkscape="http://www.inkscape.org/namespaces/inkscape"
   xmlns:sodipodi="http://sodipodi.sourceforge.net/DTD/sodipodi-0.dtd"
   xmlns="http://www.w3.org/2000/svg"
   xmlns:svg="http://www.w3.org/2000/svg">
  <sodipodi:namedview
     id="namedview1"
     pagecolor="#ffffff"
     bordercolor="#000000"
     borderopacity="0.25"
     inkscape:showpageshadow="2"
     inkscape:pageopacity="0.0"
     inkscape:pagecheckerboard="0"
     inkscape:deskcolor="#d1d1d1"
     inkscape:document-units="mm"
     inkscape:zoom="0.6"
     inkscape:cx="607.5"
     inkscape:cy="384.16667"
     inkscape:window-width="1440"
     inkscape:window-height="900"
     inkscape:window-x="0"
     inkscape:window-y="0"
     inkscape:window-maximized="0"
     inkscape:current-layer="layer1" />
  <defs
     id="defs1" />
  <g
     inkscape:label="Layer 1"
     inkscape:groupmode="layer"
     id="layer1">
    <path
       style="fill:none;stroke-width:1.05833333;stroke:#000000;stroke-opacity:1;stroke-dasharray:2.11666656,1.05833328;stroke-dashoffset:0"
       d="m 28.663193,171.53819 c 2.989575,-0.68444 6.130026,-1.47315 8.819446,-3.0868 0.71301,-0.42781 1.098685,-1.26499 1.763887,-1.76389 0.262946,-0.19721 0.587965,-0.29398 0.881947,-0.44098 0.44097,-0.29398 0.909068,-0.55086 1.322916,-0.88194 1.83633,-1.46906 3.388548,-4.57223 4.409721,-6.61458 0.768633,-1.53727 1.424172,-2.71113 1.763889,-4.40973 0.33405,-1.67025 1.320726,-3.53654 0.881944,-5.29166 -0.756634,-3.02654 -2.348746,-5.4309 -3.527777,-8.37847 -0.94552,-2.36381 -0.735928,-5.09795 -1.76389,-7.49653 -1.760892,-4.10875 -3.60386,-8.35596 -4.40972,-12.78819 -0.87421,-4.80815 -1.188125,-9.65323 -0.881946,-14.55209 0.183081,-2.92927 1.432052,-5.59636 2.204863,-8.378471 2.711444,-9.761204 4.799263,-14.938409 11.906249,-22.489583 1.472563,-1.564598 4.377796,-4.449913 6.173611,-5.732637 2.744112,-1.960084 3.095749,-1.74058 6.17361,-2.645833 3.035035,-0.892657 6.487874,-2.378041 9.701389,-2.645834 8.41782,-0.701487 19.305199,4.753113 25.135417,10.583333 2.202831,2.202831 3.441611,5.915102 4.409721,8.819444 2.52027,7.560794 0.72633,15.615862 1.32292,23.371531 0.1957,2.54416 1.25212,8.20149 2.20486,10.58333 0.94852,2.37129 2.46161,4.16409 3.96875,6.17361 5.48931,7.31909 12.52892,12.78819 22.04861,12.78819 1.6169,0 3.26519,0.31711 4.85069,0 3.51721,-0.70343 5.56018,-4.75499 7.05556,-7.49652 1.11135,-2.03747 2.05529,-4.11058 3.0868,-6.17361 0.38331,-0.76661 1.03465,-1.3977 1.32292,-2.20486 1.67374,-4.68646 0.49117,-2.70678 0.88195,-6.61459 0.49469,-4.94699 3.73582,-14.412328 8.37847,-17.197915 2.90653,-1.743916 6.02211,-1.557199 9.26041,-2.20486 6.38488,-1.276977 13.00173,-1.200197 19.40278,0 1.05178,0.197207 2.0441,0.641318 3.08681,0.881944 9.8568,2.274647 18.23708,2.518166 26.8993,-3.086807 2.12321,-1.373841 4.30941,-2.700864 6.17361,-4.40972 3.22054,-2.95216 5.54141,-6.989196 7.9375,-10.583333 4.13872,-6.208075 0.19131,0.162711 4.8507,-6.614583 2.42609,-3.528859 4.37293,-7.381629 6.61458,-11.024307 2.62741,-4.269541 5.57663,-11.277605 9.26042,-14.552083 0.6406,-0.569423 1.49171,-0.847484 2.20486,-1.322917 7.95208,-5.301387 14.78328,-5.021193 23.81251,-6.614583 9.07473,-1.601425 17.4557,-4.420737 25.57637,-8.819443 4.51154,-2.443743 7.95438,-5.554471 11.46529,-9.260418 1.50284,-1.586333 2.95797,-3.217474 4.40971,-4.850694 1.93511,-2.176981 3.45826,-5.2916668 6.61458,-5.2916668"
       id="path1" />
  </g>
</svg>
