<?xml version="1.0" encoding="UTF-8" standalone="no"?>
<!-- Created with Inkscape (http://www.inkscape.org/) -->

<svg
   width="1280"
   height="720"
   viewBox="0 0 338.66666 190.5"
   version="1.1"
   id="svg1"
   inkscape:export-filename="path 2.png"
   inkscape:export-xdpi="96"
   inkscape:export-ydpi="96"
   inkscape:version="1.4.3 (0d15f75, 2025-12-25)"
   sodipodi:docname="path 2.svg"
   xmlns:inkscape="http://www.inkscape.org/namespaces/inkscape"
   xmlns:sodipodi="http://sodipodi.sourceforge.net/DTD/sodipodi-0.dtd"
   xmlns="http://www.w3.org/2000/svg"
   xmlns:svg="http://www.w3.org/2000/svg">
  <sodipodi:namedview
     id="namedview1"
     pagecolor="#ffffff"
     bordercolor="#000000"
     borderopacity="0.25"
     inkscape:showpageshadow="2"
     inkscape:pageopacity="0.0"
     inkscape:pagecheckerboard="0"
     inkscape:deskcolor="#d1d1d1"
     inkscape:document-units="mm"
     inkscape:zoom="0.41432666"
     inkscape:cx="211.18603"
     inkscape:cy="249.8029"
     inkscape:window-width="1440"
     inkscape:window-height="872"
     inkscape:window-x="0"
     inkscape:window-y="28"
     inkscape:window-maximized="0"
     inkscape:current-layer="layer1" />
  <defs
     id="defs1" />
  <g
     inkscape:label="Layer 1"
     inkscape:groupmode="layer"
     id="layer1">
    <path
       style="fill:none;stroke:#000000;stroke-width:1.05833;stroke-dasharray:2.11667, 1.05833"
       d="m 9.5787948,176.24982 c 0.6385862,-1.49003 1.1907762,-3.02014 1.9157592,-4.4701 0.968295,-1.9366 3.45255,-4.27748 4.470104,-5.74728 7.345555,-10.61025 13.399682,-22.32926 19.15759,-33.84507 4.773006,-9.54602 7.254097,-13.82072 10.855967,-22.98911 0.399135,-1.01598 5.339956,-14.838189 5.747277,-16.603245 1.104352,-4.785532 4.073141,-18.348571 -3.192934,-21.073348 -1.01628,-0.381106 -2.133388,-0.403132 -3.19293,-0.638585 -2.339835,-0.519965 -5.238166,-1.177449 -7.663035,-0.638588 -4.144616,0.921025 -10.948029,6.523956 -13.410313,10.21738 -2.633668,3.950502 -3.655671,11.440885 -1.915758,15.964659 1.189482,3.092654 6.530591,8.029137 8.301622,9.578797 5.885934,5.15019 11.331125,7.16851 19.157587,6.38586 2.57673,-0.25767 5.206347,-0.45828 7.663037,-1.27718 12.312518,-4.10417 24.221527,-20.999467 32.567901,-30.013548 13.732821,-14.831438 34.822211,-29.235381 56.195601,-26.182039 1.80041,0.257201 3.46062,1.146659 5.10869,1.91576 23.14041,10.798855 2.85676,43.379047 31.92931,47.255387 10.89342,1.45245 24.47324,-9.100058 33.20649,-14.048901 7.21528,-4.088659 17.64443,-9.792689 25.54345,-12.133138 2.68441,-0.795382 5.53703,-0.834837 8.30163,-1.277173 8.09978,-1.295969 16.49477,-2.380001 24.26627,1.277173 2.74325,1.290945 9.94934,7.51323 11.49456,10.21738 2.28531,3.999317 3.27959,11.814498 0.6386,15.964659 -5.57435,8.75967 -15.99086,12.69564 -23.62772,19.15759 -6.80716,5.75991 -13.19901,14.05835 -14.68747,22.9891 -0.7047,4.22819 -1.60838,6.85091 1.27717,10.21738 7.88689,9.20137 22.01246,0.7557 30.65214,-1.27717 1.87632,-0.44148 3.83593,-0.38928 5.74728,-0.63858 6.38567,-0.83292 15.17039,-2.36743 21.71195,-1.27718 1.79392,0.29899 3.44672,1.17712 5.10868,1.91576 4.382,1.94756 10.04038,5.20864 12.77172,9.5788 2.61703,4.18723 5.30397,19.79617 10.85596,19.79617"
       id="path1" />
  </g>
</svg>
