<?xml version="1.0" encoding="UTF-8" standalone="no"?>
<!-- Created with Inkscape (http://www.inkscape.org/) -->

<svg
   width="1280"
   height="720"
   viewBox="0 0 338.66666 190.5"
   version="1.1"
   id="svg1"
   inkscape:export-filename="Downloads/path 4.png"
   inkscape:export-xdpi="96"
   inkscape:export-ydpi="96"
   inkscape:version="1.4.3 (0d15f75, 2025-12-25)"
   sodipodi:docname="path 4.svg"
   xmlns:inkscape="http://www.inkscape.org/namespaces/inkscape"
   xmlns:sodipodi="http://sodipodi.sourceforge.net/DTD/sodipodi-0.dtd"
   xmlns="http://www.w3.org/2000/svg"
   xmlns:svg="http://www.w3.org/2000/svg">
  <sodipodi:namedview
     id="namedview1"
     pagecolor="#ffffff"
     bordercolor="#000000"
     borderopacity="0.25"
     inkscape:showpageshadow="2"
     inkscape:pageopacity="0.0"
     inkscape:pagecheckerboard="0"
     inkscape:deskcolor="#d1d1d1"
     inkscape:document-units="mm"
     inkscape:zoom="0.6"
     inkscape:cx="607.5"
     inkscape:cy="384.16667"
     inkscape:window-width="1440"
     inkscape:window-height="900"
     inkscape:window-x="0"
     inkscape:window-y="0"
     inkscape:window-maximized="0"
     inkscape:current-layer="layer1" />
  <defs
     id="defs1" />
  <g
     inkscape:label="Layer 1"
     inkscape:groupmode="layer"
     id="layer1">
    <path
       style="fill:none;stroke:#000000;stroke-width:1.05833;stroke-dasharray:2.11667, 1.05833;stroke-dashoffset:0;stroke-opacity:1"
       d="M 1.3229166,5.7326389 C 5.4004585,5.2477852 9.9761597,4.7747978 14.111111,5.2916666 18.166769,5.7986239 28.915381,10.835519 31.75,13.670139 c 0.665527,0.665528 1.098359,1.539332 1.763889,2.204861 4.137361,4.137363 9.430293,6.428426 12.788194,11.465277 0.620958,0.931439 0.792186,2.101164 1.322916,3.086806 0.502529,0.93327 1.319702,1.683427 1.76389,2.645833 0.448437,0.971616 0.522028,2.07904 0.881944,3.086807 1.994754,5.585314 2.949183,9.215508 3.96875,14.993053 2.063768,11.694695 2.429102,23.439133 3.086806,35.277779 0.228378,4.110813 0.891797,8.251584 1.322917,12.347221 1.017264,9.664034 2.037442,16.984664 5.732637,26.017364 3.794762,9.27608 11.457654,15.69403 19.84375,20.72569 1.955905,1.17354 7.238187,4.425 9.260416,5.29167 6.384594,2.73625 13.070801,4.37805 19.843751,5.73264 4.57161,0.91432 8.98675,1.96469 13.67014,2.20486 26.9374,1.3814 45.84033,-7.11881 63.05902,-27.78125 2.07237,-2.48684 4.29207,-4.86236 6.17362,-7.49653 2.61897,-3.66657 2.91594,-5.49014 3.96875,-9.70139 1.92086,-7.68344 1.33319,-11.75857 -7.49653,-12.34722 -13.33662,-0.88911 -19.63962,12.65538 -17.19792,24.25347 0.46124,2.19087 1.64457,4.17108 2.64583,6.17361 1.80356,3.60711 4.12926,6.74637 7.9375,8.37847 9.2796,3.97697 20.06385,1.08827 29.54514,-0.44097 9.56303,-1.54242 18.95774,-3.0868 28.6632,-3.0868 3.78842,0 6.93289,-0.24349 10.58333,0.44097 5.14686,0.96503 8.84914,4.84565 10.58333,9.70139 2.07137,5.79982 -0.44326,1.31832 2.20487,6.61458 2.4351,4.87022 5.43677,9.71712 9.70138,13.22917 0.86899,0.71564 6.69488,4.98437 8.37848,5.73264 6.23612,2.77161 13.79299,3.29421 20.28473,5.29166 6.55486,2.01689 12.61038,5.44205 18.52083,8.81945"
       id="path4" />
  </g>
</svg>
